<?xml version="1.0" encoding="UTF-8" standalone="no"?>
  <!DOCTYPE svg PUBLIC "-//W3C//DTD SVG 1.1//EN" "http://www.w3.org/Graphics/SVG/1.1/DTD/svg11.dtd">
  <svg width="100%" height="100%" viewBox="0 0 2134 2134" version="1.1" xmlns="http://www.w3.org/2000/svg" xmlns:xlink="http://www.w3.org/1999/xlink" xml:space="preserve" xmlns:serif="http://www.serif.com/" style="fill-rule:evenodd;clip-rule:evenodd;stroke-linecap:round;stroke-linejoin:round;stroke-miterlimit:1.5;">
    <rect x="0" y="0" width="2134" height="2134" style="fill:#8000ff;"/>
    <path d="M1891.53,412.904c-76.612,-62.838 -173.45,-94.259 -290.487,-94.259c-56.288,0 -119.242,7.984 -188.759,23.809c1.271,-14.563 -6.291,-29.496 -14.55,-38.696c-14.075,-15.688 -33.291,-18.292 -47.512,-20.004c-53.063,-6.4 -94.075,24.8 -97.525,27.508c-21.208,16.638 -34.963,37.375 -50.013,77.521c-2.704,7.2 -5.2,14.187 -7.55,20.987c-129.262,50.309 -238.187,112.855 -326.7,187.725c-57.462,47.13 -86.191,100.15 -86.191,159.063c0,21.154 5.041,38.633 15.125,52.429c22.825,31.225 63.712,35.533 87.029,37.9c85.746,8.7 157.596,-39.296 185.75,-60.496c-11.938,87.117 -54.021,401.65 -66.046,659.429c0,0.005 -2.812,62.184 5.504,181.113c-14.375,-2.771 -37.546,-31.042 -69.546,-84.938c-66.425,-113.604 -129.025,-253.65 -187.795,-420.108c-11.984,-36.992 -58.767,-184.933 -140.409,-443.871c-19.591,-73.983 -40.275,-147.966 -62.05,-221.946c-30.479,-77.941 -80.029,-116.916 -148.591,-116.916c-31.575,0 -59.317,20.479 -83.259,61.429c-17.425,33.029 -38.108,89.196 -62.05,168.442c-43.554,150.62 -65.308,373.216 -65.308,667.795c0,187.613 13.05,350.088 39.179,487.475c19.592,109.646 50.617,164.48 93.079,164.48c21.75,0 39.154,-13.884 52.229,-41.625c14.146,-27.746 20.138,-58.121 17.975,-91.15c-4.375,-62.08 -6.537,-139.371 -6.537,-231.846c0,-240.421 9.792,-416.779 29.383,-529.079c11.984,-58.121 23.421,-87.192 34.309,-87.192c10.862,0 27.741,27.092 50.616,81.25c0,0 39.454,111.012 225.334,503.317c98.454,207.791 268.866,431.054 346.483,404.25c6.533,1.15 14.05,-2.884 28.813,-11.005c12.749,-7.008 87.849,-56.545 95.766,-115.858c1.05,-7.854 -2.146,-20.925 -9.575,-39.275c-7.458,-19.637 -11.171,-37.308 -11.171,-53.021c3.192,-126.966 18.6,-306.341 46.288,-538.058c28.729,-260.5 55.862,-417.6 81.4,-471.296c36.158,-28.779 92.571,-54.983 169.187,-78.546c70.225,-19.641 127.138,-29.458 170.779,-29.458c127.688,0 191.534,54.983 191.534,164.954c0,72.013 -37.259,155.133 -111.729,249.392c-62.796,81.187 -137.813,152.525 -225.05,214.046c-88.334,62.841 -153.225,92.295 -194.721,88.366c-24.492,-2.608 -36.713,7.213 -36.713,29.459c0,22.275 19.154,33.383 57.463,33.383c19.15,0 61.175,-10.463 126.091,-31.421c155.342,-51.058 287.817,-126.321 397.425,-225.829c122.35,-109.967 183.55,-223.863 183.55,-341.688c0,-142.675 -46.833,-252 -140.454,-327.941" style="fill:#fff;fill-rule:nonzero;"/>
    <path d="M1630.23,1702.75l-1.194,-113.536c0,-0 26.21,-37.175 56.508,-0l-0,113.536l135.816,-0c0,-0 38.856,19.618 0,48.367l-135.816,-0l-0,117.722c-0,0 -25.213,24.164 -55.314,0l-1.194,-117.722l-141.352,-0c-0,-0 -32.586,-32.255 -0,-48.367l142.546,-0" style="fill:#fff;stroke:#000;stroke-width:1px;"/>
  </svg>