<?xml version="1.0" encoding="UTF-8" standalone="no"?>
  <!DOCTYPE svg PUBLIC "-//W3C//DTD SVG 1.1//EN" "http://www.w3.org/Graphics/SVG/1.1/DTD/svg11.dtd">
  <svg width="100%" height="100%" viewBox="0 0 528 528" version="1.1" xmlns="http://www.w3.org/2000/svg" xmlns:xlink="http://www.w3.org/1999/xlink" xml:space="preserve" xmlns:serif="http://www.serif.com/" style="fill-rule:evenodd;clip-rule:evenodd;stroke-linejoin:round;stroke-miterlimit:2;">
  <rect id="アートボード1" x="-0" y="0" width="528" height="528" style="fill:none;"/>
    <rect x="0" y="0" width="528" height="528" style="fill:#12a095;"/>
    <path d="M485.456,73.989c-21.514,-17.646 -48.708,-26.469 -81.574,-26.469c-15.806,-0 -33.485,2.241 -53.007,6.686c0.357,-4.09 -1.767,-8.283 -4.086,-10.867c-3.952,-4.405 -9.349,-5.137 -13.342,-5.618c-14.901,-1.797 -26.418,6.965 -27.387,7.725c-5.956,4.672 -9.818,10.496 -14.044,21.77c-0.76,2.021 -1.461,3.984 -2.121,5.893c-36.299,14.128 -66.887,31.692 -91.743,52.717c-16.136,13.235 -24.204,28.124 -24.204,44.668c-0,5.94 1.416,10.848 4.247,14.723c6.41,8.768 17.892,9.978 24.44,10.642c24.079,2.444 44.255,-11.034 52.162,-16.988c-3.352,24.464 -15.17,112.791 -18.547,185.18c-0,0.001 -0.79,17.462 1.545,50.86c-4.036,-0.778 -10.543,-8.717 -19.529,-23.852c-18.653,-31.902 -36.233,-71.23 -52.737,-117.974c-3.365,-10.388 -16.502,-51.933 -39.429,-124.647c-5.502,-20.776 -11.31,-41.552 -17.425,-62.327c-8.559,-21.887 -22.473,-32.832 -41.727,-32.832c-8.867,-0 -16.657,5.751 -23.38,17.25c-4.894,9.276 -10.702,25.048 -17.425,47.302c-12.231,42.297 -18.34,104.806 -18.34,187.529c-0,52.685 3.665,98.311 11.002,136.892c5.502,30.791 14.214,46.189 26.138,46.189c6.108,-0 10.996,-3.899 14.668,-11.689c3.972,-7.792 5.654,-16.322 5.047,-25.597c-1.228,-17.433 -1.836,-39.138 -1.836,-65.107c0,-67.514 2.75,-117.039 8.252,-148.575c3.365,-16.321 6.577,-24.485 9.634,-24.485c3.05,0 7.791,7.608 14.214,22.817c0,-0 11.079,31.174 63.278,141.341c27.648,58.351 75.503,121.047 97.299,113.52c1.834,0.323 3.945,-0.809 8.091,-3.09c3.58,-1.968 24.67,-15.879 26.893,-32.535c0.295,-2.206 -0.603,-5.876 -2.689,-11.029c-2.094,-5.515 -3.137,-10.477 -3.137,-14.889c0.897,-35.655 5.223,-86.027 12.999,-151.097c8.067,-73.153 15.687,-117.27 22.858,-132.348c10.154,-8.082 25.996,-15.441 47.511,-22.058c19.721,-5.515 35.702,-8.272 47.958,-8.272c35.857,-0 53.786,15.44 53.786,46.322c0,20.223 -10.463,43.564 -31.376,70.034c-17.634,22.799 -38.7,42.831 -63.198,60.108c-24.805,17.647 -43.028,25.918 -54.681,24.815c-6.878,-0.733 -10.31,2.025 -10.31,8.272c0,6.255 5.379,9.375 16.137,9.375c5.378,-0 17.179,-2.938 35.409,-8.824c43.623,-14.338 80.824,-35.473 111.604,-63.417c34.358,-30.88 51.545,-62.864 51.545,-95.952c-0,-40.066 -13.152,-70.766 -39.443,-92.092" style="fill:#fff;fill-rule:nonzero;"/>
  </svg>